<svg width="14" height="14" viewBox="0 0 14 14" fill="none" xmlns="http://www.w3.org/2000/svg">
<path fill-rule="evenodd" clip-rule="evenodd" d="M4.66675 5.83317H2.33341C1.68941 5.83317 1.16675 5.3105 1.16675 4.6665V2.33317C1.16675 1.68917 1.68941 1.1665 2.33341 1.1665H4.66675C5.31075 1.1665 5.83341 1.68917 5.83341 2.33317V4.6665C5.83341 5.3105 5.31075 5.83317 4.66675 5.83317Z" stroke="black" stroke-linecap="round" stroke-linejoin="round"/>
<path fill-rule="evenodd" clip-rule="evenodd" d="M11.6667 5.83317H9.33341C8.68941 5.83317 8.16675 5.3105 8.16675 4.6665V2.33317C8.16675 1.68917 8.68941 1.1665 9.33341 1.1665H11.6667C12.3107 1.1665 12.8334 1.68917 12.8334 2.33317V4.6665C12.8334 5.3105 12.3107 5.83317 11.6667 5.83317Z" stroke="black" stroke-linecap="round" stroke-linejoin="round"/>
<path fill-rule="evenodd" clip-rule="evenodd" d="M4.66675 12.8332H2.33341C1.68941 12.8332 1.16675 12.3105 1.16675 11.6665V9.33317C1.16675 8.68917 1.68941 8.1665 2.33341 8.1665H4.66675C5.31075 8.1665 5.83341 8.68917 5.83341 9.33317V11.6665C5.83341 12.3105 5.31075 12.8332 4.66675 12.8332Z" stroke="black" stroke-linecap="round" stroke-linejoin="round"/>
<path fill-rule="evenodd" clip-rule="evenodd" d="M11.6667 12.8332H9.33341C8.68941 12.8332 8.16675 12.3105 8.16675 11.6665V9.33317C8.16675 8.68917 8.68941 8.1665 9.33341 8.1665H11.6667C12.3107 8.1665 12.8334 8.68917 12.8334 9.33317V11.6665C12.8334 12.3105 12.3107 12.8332 11.6667 12.8332Z" stroke="black" stroke-linecap="round" stroke-linejoin="round"/>
</svg>
