<svg width="137" height="33" viewBox="0 0 137 33" fill="none" xmlns="http://www.w3.org/2000/svg">
<path fill-rule="evenodd" clip-rule="evenodd" d="M45.5701 12.3044C45.5701 7.3544 48.3388 4.80444 52.4638 4.80444C56.5884 4.80444 59.3571 7.32433 59.3571 12.3044V20.0144H57.0404V12.3044C57.0404 8.88437 55.2325 7.08456 52.4638 7.08456C49.695 7.08456 47.8869 8.88437 47.8869 12.3044V20.0144H45.5701V12.3044Z" fill="#150E26"/>
<path fill-rule="evenodd" clip-rule="evenodd" d="M74.8164 11.2862C74.3081 8.61598 72.3025 7.08639 69.7878 7.08639C67.1886 7.08639 65.2392 8.67611 64.7589 11.2862H74.8164ZM62.2729 12.6043C62.2729 8.10416 65.3804 4.80444 69.7878 4.80444C74.1948 4.80444 77.2464 8.10416 77.2464 12.6043V13.4743H64.7023C65.013 16.3238 67.0191 18.124 69.7878 18.124C71.7935 18.124 73.2343 17.3441 74.1103 15.8739H76.6532C75.5794 18.6343 73.0368 20.4041 69.7878 20.4041C65.3804 20.4041 62.2729 17.104 62.2729 12.6043Z" fill="#150E26"/>
<path fill-rule="evenodd" clip-rule="evenodd" d="M84.4082 12.2859L78.9277 4.80444H81.809L86.1314 10.9313L90.4826 4.80444H93.2513L87.7418 12.2859L93.4771 20.0144H90.6234L86.0472 13.61L81.4986 20.0144H78.7012L84.4082 12.2859Z" fill="#150E26"/>
<path fill-rule="evenodd" clip-rule="evenodd" d="M107.669 12.6061C107.669 9.39619 105.579 7.08639 102.499 7.08639C99.4198 7.08639 97.3292 9.39619 97.3292 12.6061C97.3292 15.7859 99.4198 18.1258 102.499 18.1258C105.579 18.1258 107.669 15.7859 107.669 12.6061ZM94.9841 12.7241C94.9841 8.07448 98.0919 4.80444 102.527 4.80444C106.906 4.80444 109.958 7.98427 109.958 12.7241V20.0144H107.839V16.5639C106.878 19.0842 104.702 20.4041 102.132 20.4041C98.3744 20.4041 94.9841 17.5245 94.9841 12.7241Z" fill="#150E26"/>
<path fill-rule="evenodd" clip-rule="evenodd" d="M120.206 7.15395C119.941 7.10731 119.662 7.08456 119.369 7.08456C117.165 7.08456 115.725 8.31425 115.725 11.2242V20.0144H113.408V11.2242C113.408 6.90416 115.838 4.80444 119.369 4.80444C119.656 4.80444 119.935 4.81832 120.206 4.84646V7.15395Z" fill="#150E26"/>
<path fill-rule="evenodd" clip-rule="evenodd" d="M121.645 12.6043C121.645 8.10416 124.753 4.80444 129.16 4.80444C132.833 4.80444 135.573 7.08456 136.364 10.444H134.019C133.285 8.40445 131.505 7.08456 129.16 7.08456C126.081 7.08456 123.99 9.39436 123.99 12.6043C123.99 15.7841 126.081 18.124 129.16 18.124C131.505 18.124 133.285 16.8041 134.019 14.7645H136.364C135.573 18.124 132.833 20.4041 129.16 20.4041C124.753 20.4041 121.645 17.104 121.645 12.6043Z" fill="#150E26"/>
<path fill-rule="evenodd" clip-rule="evenodd" d="M39.8404 0L29.3543 30.557L19.9202 15.2762L24.2626 2.62628C28.7767 0.929008 33.9414 0 39.8404 0Z" fill="#28FFC8"/>
<path fill-rule="evenodd" clip-rule="evenodd" d="M15.2083 7.64026L19.9203 15.2759L14.6772 30.5567H0C3.22288 21.1691 8.06482 13.1195 15.2083 7.64026Z" fill="#823CFF"/>
<path fill-rule="evenodd" clip-rule="evenodd" d="M49.5821 28.5519L48.3013 25.5082L47.0206 28.5519H49.5821ZM49.7879 29.0395H46.8148L46.1744 30.5533H45.5874L48.0269 24.8867H48.5834L51.0229 30.5533H50.4283L49.7879 29.0395Z" fill="#150E26"/>
<path fill-rule="evenodd" clip-rule="evenodd" d="M53.6875 30.3252C53.3745 30.1417 53.1295 29.8838 52.9516 29.5523C52.7738 29.2204 52.6848 28.8465 52.6848 28.4309C52.6848 28.0154 52.7738 27.643 52.9516 27.3138C53.1295 26.9846 53.3745 26.7283 53.6875 26.5448C54 26.3613 54.3547 26.2695 54.7508 26.2695C55.0967 26.2695 55.4049 26.3412 55.6772 26.4839C55.9487 26.6273 56.1636 26.8362 56.3215 27.1114L55.9171 27.4028C55.785 27.1924 55.6173 27.0347 55.4143 26.9291C55.2107 26.8242 54.9896 26.7714 54.7508 26.7714C54.4614 26.7714 54.2008 26.8404 53.9695 26.9777C53.7379 27.1157 53.5575 27.3111 53.4283 27.5647C53.2983 27.8184 53.2337 28.1071 53.2337 28.4309C53.2337 28.7601 53.2983 29.05 53.4283 29.301C53.5575 29.5523 53.7379 29.7466 53.9695 29.8838C54.2008 30.0218 54.4614 30.0904 54.7508 30.0904C54.9896 30.0904 55.2107 30.0391 55.4143 29.9366C55.6173 29.8341 55.785 29.6776 55.9171 29.4671L56.3215 29.7585C56.1636 30.0338 55.9476 30.2431 55.6732 30.3857C55.3991 30.5287 55.0913 30.6004 54.7508 30.6004C54.3547 30.6004 54 30.5087 53.6875 30.3252Z" fill="#150E26"/>
<path fill-rule="evenodd" clip-rule="evenodd" d="M59.245 30.3252C58.9324 30.1417 58.687 29.8838 58.5095 29.5523C58.3316 29.2204 58.2427 28.8465 58.2427 28.4309C58.2427 28.0154 58.3316 27.643 58.5095 27.3138C58.687 26.9846 58.9324 26.7283 59.245 26.5448C59.5579 26.3613 59.9122 26.2695 60.3086 26.2695C60.6542 26.2695 60.9628 26.3412 61.235 26.4839C61.5066 26.6273 61.7215 26.8362 61.879 27.1114L61.475 27.4028C61.3429 27.1924 61.1751 27.0347 60.9719 26.9291C60.7686 26.8242 60.5471 26.7714 60.3086 26.7714C60.0189 26.7714 59.7583 26.8404 59.5274 26.9777C59.2958 27.1157 59.1154 27.3111 58.9858 27.5647C58.8562 27.8184 58.7912 28.1071 58.7912 28.4309C58.7912 28.7601 58.8562 29.05 58.9858 29.301C59.1154 29.5523 59.2958 29.7466 59.5274 29.8838C59.7583 30.0218 60.0189 30.0904 60.3086 30.0904C60.5471 30.0904 60.7686 30.0391 60.9719 29.9366C61.1751 29.8341 61.3429 29.6776 61.475 29.4671L61.879 29.7585C61.7215 30.0338 61.5055 30.2431 61.231 30.3857C60.9566 30.5287 60.6488 30.6004 60.3086 30.6004C59.9122 30.6004 59.5579 30.5087 59.245 30.3252Z" fill="#150E26"/>
<path fill-rule="evenodd" clip-rule="evenodd" d="M64.7873 27.1516C64.5252 27.4137 64.3768 27.7545 64.3412 28.1758H67.1847C67.1491 27.7545 67.0007 27.4137 66.7389 27.1516C66.4768 26.8899 66.1505 26.7588 65.7595 26.7588C65.3729 26.7588 65.0491 26.8899 64.7873 27.1516ZM67.6957 28.6061H64.3411C64.3716 29.0486 64.532 29.4063 64.8217 29.6789C65.111 29.9514 65.4769 30.0875 65.9191 30.0875C66.1685 30.0875 66.3968 30.0401 66.6056 29.9456C66.8136 29.8516 66.994 29.7124 67.1465 29.5289L67.4518 29.9013C67.2735 30.128 67.0514 30.3007 66.7845 30.4194C66.5174 30.5381 66.224 30.5975 65.9039 30.5975C65.4922 30.5975 65.1274 30.5042 64.8097 30.318C64.4921 30.1322 64.2445 29.8743 64.067 29.5451C63.8887 29.2159 63.7998 28.8435 63.7998 28.428C63.7998 28.0124 63.8851 27.6401 64.0554 27.3109C64.2256 26.9817 64.4594 26.7253 64.7567 26.5418C65.054 26.3583 65.388 26.2666 65.7594 26.2666C66.13 26.2666 66.4629 26.3583 66.758 26.5418C67.0524 26.7253 67.284 26.9805 67.4518 27.3066C67.6195 27.6331 67.703 28.007 67.703 28.428L67.6957 28.6061Z" fill="#150E26"/>
<path fill-rule="evenodd" clip-rule="evenodd" d="M70.1426 30.5565H70.6838V24.5499H70.1426V30.5565Z" fill="#150E26"/>
<path fill-rule="evenodd" clip-rule="evenodd" d="M74.1103 27.1516C73.8482 27.4137 73.6998 27.7545 73.6642 28.1758H76.5081C76.4721 27.7545 76.3237 27.4137 76.0619 27.1516C75.7998 26.8899 75.4735 26.7588 75.0825 26.7588C74.6959 26.7588 74.3721 26.8899 74.1103 27.1516ZM77.0187 28.6061H73.6641C73.6946 29.0486 73.855 29.4063 74.1447 29.6789C74.4344 29.9514 74.7999 30.0875 75.2421 30.0875C75.4915 30.0875 75.7202 30.0401 75.9286 29.9456C76.1366 29.8516 76.317 29.7124 76.4695 29.5289L76.7748 29.9013C76.5969 30.128 76.3744 30.3007 76.1075 30.4194C75.8407 30.5381 75.547 30.5975 75.2269 30.5975C74.8152 30.5975 74.4507 30.5042 74.1331 30.318C73.8154 30.1322 73.5675 29.8743 73.39 29.5451C73.2117 29.2159 73.1228 28.8435 73.1228 28.428C73.1228 28.0124 73.2081 27.6401 73.3784 27.3109C73.5486 26.9817 73.7824 26.7253 74.0797 26.5418C74.377 26.3583 74.711 26.2666 75.0824 26.2666C75.453 26.2666 75.7859 26.3583 76.081 26.5418C76.3754 26.7253 76.607 26.9805 76.7748 27.3066C76.9425 27.6331 77.026 28.007 77.026 28.428L77.0187 28.6061Z" fill="#150E26"/>
<path fill-rule="evenodd" clip-rule="evenodd" d="M80.552 26.4881C80.8035 26.3424 81.115 26.2695 81.4857 26.2695V26.8277L81.3564 26.82C80.9346 26.82 80.6042 26.9572 80.365 27.2328C80.1261 27.5081 80.0071 27.8939 80.0071 28.3904V30.5599H79.4658V26.3019H79.9842V27.1357C80.1109 26.8497 80.3008 26.6338 80.552 26.4881Z" fill="#150E26"/>
<path fill-rule="evenodd" clip-rule="evenodd" d="M85.7854 29.92C86.0039 29.7716 86.1666 29.5569 86.2733 29.2763V28.5801H85.0154C84.3293 28.5801 83.9863 28.8337 83.9863 29.341C83.9863 29.5893 84.0752 29.7851 84.2531 29.9277C84.431 30.0707 84.68 30.1424 85.0002 30.1424C85.3051 30.1424 85.5669 30.068 85.7854 29.92ZM86.3953 26.6833C86.6748 26.9616 86.8146 27.3729 86.8146 27.9176V30.557H86.2962V29.8928C86.1742 30.1145 85.9949 30.2872 85.7589 30.4113C85.5226 30.5354 85.2416 30.5975 84.9163 30.5975C84.4691 30.5975 84.1133 30.4841 83.8491 30.2575C83.5848 30.0308 83.4526 29.7313 83.4526 29.3589C83.4526 28.9973 83.5757 28.7059 83.8226 28.4847C84.069 28.2634 84.4615 28.1528 85.0002 28.1528H86.2733V27.8937C86.2733 27.5267 86.1767 27.2473 85.9836 27.0557C85.7905 26.8645 85.508 26.7685 85.1374 26.7685C84.8833 26.7685 84.6393 26.8128 84.4056 26.9023C84.1718 26.9909 83.971 27.1135 83.8033 27.2704L83.5594 26.841C83.7627 26.6579 84.0066 26.5164 84.2912 26.4162C84.5758 26.3163 84.8757 26.2666 85.1908 26.2666C85.7142 26.2666 86.1157 26.4058 86.3953 26.6833Z" fill="#150E26"/>
<path fill-rule="evenodd" clip-rule="evenodd" d="M91.7319 30.301C91.6303 30.3982 91.5043 30.4726 91.3544 30.5234C91.2044 30.5747 91.048 30.6005 90.8857 30.6005C90.5093 30.6005 90.2196 30.4926 90.0163 30.2767C89.8134 30.0609 89.7117 29.7559 89.7117 29.362V26.7877H88.9951V26.302H89.7117V25.3711H90.253V26.302H91.4724V26.7877H90.253V29.3296C90.253 29.5833 90.3125 29.7764 90.4319 29.9086C90.5514 30.0404 90.7231 30.1067 90.9467 30.1067C91.0585 30.1067 91.1663 30.0878 91.2705 30.0501C91.3747 30.0123 91.4651 29.9583 91.5413 29.8882L91.7319 30.301Z" fill="#150E26"/>
<path fill-rule="evenodd" clip-rule="evenodd" d="M94.4875 27.1516C94.2254 27.4137 94.077 27.7545 94.0414 28.1758H96.8849C96.8493 27.7545 96.7009 27.4137 96.4391 27.1516C96.177 26.8899 95.8507 26.7588 95.4597 26.7588C95.0731 26.7588 94.7493 26.8899 94.4875 27.1516ZM97.3959 28.6061H94.0413C94.0718 29.0486 94.2322 29.4063 94.5219 29.6789C94.8112 29.9514 95.1771 30.0875 95.6193 30.0875C95.8687 30.0875 96.097 30.0401 96.3058 29.9456C96.5138 29.8516 96.6942 29.7124 96.8467 29.5289L97.152 29.9013C96.9737 30.128 96.7516 30.3007 96.4847 30.4194C96.2176 30.5381 95.9242 30.5975 95.6041 30.5975C95.1924 30.5975 94.8276 30.5042 94.5099 30.318C94.1923 30.1322 93.9447 29.8743 93.7668 29.5451C93.5889 29.2159 93.5 28.8435 93.5 28.428C93.5 28.0124 93.5849 27.6401 93.7556 27.3109C93.9258 26.9817 94.1596 26.7253 94.4569 26.5418C94.7542 26.3583 95.0882 26.2666 95.4596 26.2666C95.8302 26.2666 96.1631 26.3583 96.4582 26.5418C96.7526 26.7253 96.9843 26.9805 97.152 27.3066C97.3197 27.6331 97.4032 28.007 97.4032 28.428L97.3959 28.6061Z" fill="#150E26"/>
<path fill-rule="evenodd" clip-rule="evenodd" d="M105.621 29.6847C105.855 29.5529 106.037 29.3678 106.166 29.1304C106.296 28.8929 106.361 28.6231 106.361 28.3209C106.361 28.0186 106.296 27.7503 106.166 27.5152C106.037 27.2804 105.856 27.097 105.625 26.9651C105.394 26.8329 105.13 26.7666 104.836 26.7666C104.546 26.7666 104.286 26.8314 104.054 26.9609C103.823 27.0904 103.643 27.2739 103.513 27.5114C103.384 27.7488 103.319 28.0186 103.319 28.3209C103.319 28.6231 103.384 28.8929 103.513 29.1304C103.643 29.3678 103.823 29.5529 104.054 29.6847C104.286 29.8173 104.546 29.8832 104.836 29.8832C105.126 29.8832 105.387 29.8173 105.621 29.6847ZM106.886 26.299V30.0385C106.886 30.7617 106.72 31.2975 106.387 31.6456C106.054 31.9941 105.552 32.1679 104.882 32.1679C104.51 32.1679 104.158 32.1097 103.825 31.9941C103.493 31.8777 103.222 31.7173 103.014 31.5122L103.288 31.0751C103.481 31.2582 103.717 31.4016 103.994 31.5041C104.27 31.6067 104.562 31.6579 104.867 31.6579C105.374 31.6579 105.748 31.5323 105.987 31.2813C106.226 31.0308 106.346 30.6406 106.346 30.1118V29.5694C106.177 29.8392 105.958 30.0443 105.686 30.1846C105.414 30.3253 105.113 30.3951 104.782 30.3951C104.406 30.3951 104.065 30.3076 103.757 30.1322C103.449 29.9564 103.208 29.7113 103.033 29.3952C102.857 29.0795 102.77 28.7221 102.77 28.3228C102.77 27.9234 102.857 27.5672 103.033 27.2542C103.208 26.9412 103.448 26.6983 103.753 26.5256C104.058 26.3529 104.401 26.2666 104.782 26.2666C105.123 26.2666 105.43 26.3395 105.705 26.4852C105.979 26.6309 106.2 26.841 106.368 27.1166V26.299H106.886Z" fill="#150E26"/>
<path fill-rule="evenodd" clip-rule="evenodd" d="M110.824 26.4881C111.076 26.3424 111.387 26.2695 111.758 26.2695V26.8277L111.628 26.82C111.206 26.82 110.876 26.9572 110.637 27.2328C110.398 27.5081 110.279 27.8939 110.279 28.3904V30.5599H109.738V26.3019H110.256V27.1357C110.383 26.8497 110.572 26.6338 110.824 26.4881Z" fill="#150E26"/>
<path fill-rule="evenodd" clip-rule="evenodd" d="M116.435 29.879C116.661 29.7417 116.838 29.5459 116.965 29.2923C117.092 29.0386 117.156 28.7495 117.156 28.4261C117.156 28.1023 117.092 27.8136 116.965 27.5599C116.838 27.3063 116.661 27.1108 116.435 26.9728C116.209 26.8356 115.954 26.7666 115.669 26.7666C115.384 26.7666 115.129 26.8356 114.903 26.9728C114.676 27.1108 114.499 27.3063 114.369 27.5599C114.239 27.8136 114.174 28.1023 114.174 28.4261C114.174 28.7495 114.239 29.0386 114.369 29.2923C114.499 29.5459 114.676 29.7417 114.903 29.879C115.129 30.017 115.384 30.0856 115.669 30.0856C115.954 30.0856 116.209 30.017 116.435 29.879ZM114.625 30.318C114.315 30.1322 114.07 29.8743 113.893 29.5451C113.715 29.2159 113.626 28.8435 113.626 28.428C113.626 28.0124 113.715 27.6401 113.893 27.3109C114.07 26.9817 114.315 26.7253 114.625 26.5418C114.934 26.3583 115.283 26.2666 115.669 26.2666C116.055 26.2666 116.403 26.3583 116.713 26.5418C117.023 26.7253 117.266 26.9817 117.441 27.3109C117.617 27.6401 117.704 28.0124 117.704 28.428C117.704 28.8435 117.617 29.2159 117.441 29.5451C117.266 29.8743 117.023 30.1322 116.713 30.318C116.403 30.5042 116.055 30.5975 115.669 30.5975C115.283 30.5975 114.934 30.5042 114.625 30.318Z" fill="#150E26"/>
<path fill-rule="evenodd" clip-rule="evenodd" d="M125.914 26.3008L124.397 30.5588H123.887L122.621 27.0698L121.356 30.5588H120.845L119.335 26.3008H119.854L121.112 29.9193L122.4 26.3008H122.865L124.146 29.9193L125.419 26.3008H125.914Z" fill="#150E26"/>
<path fill-rule="evenodd" clip-rule="evenodd" d="M130.291 30.301C130.189 30.3982 130.063 30.4726 129.913 30.5234C129.763 30.5747 129.607 30.6005 129.444 30.6005C129.068 30.6005 128.778 30.4926 128.575 30.2767C128.372 30.0609 128.27 29.7559 128.27 29.362V26.7877H127.554V26.302H128.27V25.3711H128.812V26.302H130.031V26.7877H128.812V29.3296C128.812 29.5833 128.871 29.7764 128.991 29.9086C129.11 30.0404 129.282 30.1067 129.505 30.1067C129.617 30.1067 129.725 30.0878 129.829 30.0501C129.933 30.0123 130.023 29.9583 130.1 29.8882L130.291 30.301Z" fill="#150E26"/>
<path fill-rule="evenodd" clip-rule="evenodd" d="M135.852 26.7314C136.149 27.0421 136.298 27.4938 136.298 28.0875V30.5565H135.756V28.1441C135.756 27.7016 135.652 27.3643 135.444 27.1323C135.235 26.9002 134.938 26.7842 134.552 26.7842C134.12 26.7842 133.778 26.9202 133.527 27.1932C133.275 27.4657 133.149 27.8419 133.149 28.3222V30.5565H132.608V24.5499H133.149V27.0432C133.296 26.795 133.5 26.6034 133.759 26.4685C134.018 26.3335 134.316 26.2661 134.651 26.2661C135.154 26.2661 135.554 26.4214 135.852 26.7314Z" fill="#150E26"/>
</svg>
