<svg width="29" height="27" viewBox="0 0 29 27" fill="none" xmlns="http://www.w3.org/2000/svg">
<path d="M0 19.3091H6.98157V21.5688H4.9787V26.9997H2.06952V21.5688H0V19.3091Z" fill="#486AAE"/>
<path d="M10.5176 22.4164L9.04771 26.9997H6.25391L8.99398 19.3091H12.0281L14.8342 26.9997H12.0061L10.5176 22.4164Z" fill="#486AAE"/>
<path d="M14.167 19.3091H21.1482V21.5688H19.146V26.9997H16.237V21.5688H14.167V19.3091Z" fill="#486AAE"/>
<path d="M24.6852 22.4164L23.2147 26.9997H20.4209L23.1619 19.3091H26.1951L29.0002 26.9997H26.1731L24.6852 22.4164Z" fill="#486AAE"/>
<path fill-rule="evenodd" clip-rule="evenodd" d="M24.7878 5.18332C24.5272 4.63808 24.1838 4.1155 23.7568 3.62543C22.797 2.52363 21.4429 1.60678 19.8404 0.974431C18.2247 0.337185 16.3818 0 14.5091 0C12.6363 0 10.7935 0.337185 9.17863 0.974431C7.57529 1.60685 6.22109 2.5237 5.26133 3.62543C4.83452 4.11542 4.4901 4.63874 4.22949 5.18427C6.31576 4.64766 9.88445 3.93916 13.198 3.86425C13.5176 3.85695 13.7377 3.96583 13.8826 4.16117C14.0591 4.39904 14.0459 5.24697 14.0415 5.62633L13.9473 15.4313C14.1339 15.4379 14.3214 15.4421 14.5091 15.4421C14.6983 15.4421 14.8868 15.4388 15.0734 15.4322L14.9792 5.62625C14.9744 5.24697 14.9607 4.39897 15.1378 4.1611C15.2831 3.96583 15.5024 3.85695 15.8219 3.86418C19.1341 3.9385 22.702 4.64714 24.7878 5.18332Z" fill="#486AAE"/>
<path fill-rule="evenodd" clip-rule="evenodd" d="M25.2331 6.46022C22.1796 5.726 20.1404 5.59022 18.1284 5.47146C16.3746 5.36777 16.3517 6.03388 16.5268 7.30684C16.5383 7.38452 16.5524 7.48244 16.5691 7.59411C17.1573 11.3001 17.8899 14.4892 18.0157 15.0305C22.2914 13.991 25.3749 11.1088 25.3749 7.72309C25.3749 7.29675 25.3264 6.87436 25.2331 6.46022Z" fill="#486AAE"/>
<path fill-rule="evenodd" clip-rule="evenodd" d="M12.4927 7.30683C12.668 6.03395 12.6455 5.36776 10.8919 5.47146C8.8792 5.59022 6.83957 5.72592 3.78494 6.46066C3.69163 6.87479 3.64258 7.29668 3.64258 7.72302C3.64258 9.18634 4.20226 10.6023 5.26131 11.8189C6.22107 12.9207 7.57528 13.8375 9.17862 14.4703C9.75892 14.6988 10.3713 14.8861 11.0021 15.0359C11.1205 14.5288 11.8699 11.2733 12.4645 7.50108C12.4755 7.4288 12.4857 7.36208 12.4927 7.30683Z" fill="#486AAE"/>
</svg>
